<svg height="496pt" viewBox="0 -24 496 496" width="496pt" xmlns="http://www.w3.org/2000/svg"><path d="m464 48v-48h-138.742188c-28.722656 0-55.867187 10.257812-77.257812 29.039062-21.390625-18.78125-48.535156-29.039062-77.257812-29.039062h-138.742188v48h-32v352h192.566406c3.890625 27.105469 27.265625 48 55.433594 48s51.535156-20.894531 55.433594-48h192.566406v-352zm-416-32h122.742188c25.984374 0 50.417968 9.808594 69.257812 27.527344v164.472656h16v-164.472656c18.839844-17.71875 43.273438-27.527344 69.257812-27.527344h122.742188v336h-192v-128h-16v128h-192zm432 368h-192v8c0 22.054688-17.945312 40-40 40s-40-17.945312-40-40v-8h-192v-320h16v304h432v-304h16zm0 0"/><path d="m191.984375 114.320312c-15.25-13.632812-35.71875-20.167968-56.242187-17.847656-32.621094 3.648438-59.199219 29.925782-63.183594 62.496094-2.910156 23.765625 5.824218 46.902344 23.449218 62.664062v18.367188c0 26.472656 21.527344 48 48 48 26.472657 0 48-21.527344 48-48v-18.375c15.296876-13.679688 24-33.007812 24-53.625-.007812-20.464844-8.761718-40.03125-24.023437-53.679688zm-79.984375 109.679688h64v16h-64zm24-56c0-4.40625 3.585938-8 8-8s8 3.59375 8 8-3.585938 8-8 8-8-3.59375-8-8zm8 104c-11.792969 0-22-6.480469-27.550781-16h55.101562c-5.550781 9.519531-15.757812 16-27.550781 16zm39.089844-64h-31.089844v-17.472656c9.289062-3.3125 16-12.113282 16-22.527344 0-13.230469-10.769531-24-24-24s-24 10.769531-24 24c0 10.414062 6.710938 19.214844 16 22.527344v17.472656h-31.023438c-12.527343-12.199219-18.710937-29.398438-16.542968-47.097656 3.101562-25.292969 23.75-45.703125 49.09375-48.535156 2.191406-.246094 4.375-.367188 6.550781-.367188 13.808594 0 26.832031 4.945312 37.242187 14.246094 11.863282 10.617187 18.679688 25.832031 18.679688 41.753906 0 15.199219-6.121094 29.480469-16.910156 40zm0 0"/><path d="m64 304h16v16h-16zm0 0"/><path d="m96 304h96v16h-96zm0 0"/><path d="m208 304h16v16h-16zm0 0"/><path d="m136 40h16v32h-16zm0 0"/><path d="m73.070312 61.144531 13.859376-8 16 27.710938-13.859376 8zm0 0"/><path d="m185.074219 80.859375 15.996093-27.71875 13.859376 8-16 27.714844zm0 0"/><path d="m424 120h-16v-88h-16v88h-16v-64h-16v64h-16v-40h-16v40h-16v-16h-16v16h-16v16h144zm0 0"/><path d="m280 160h144v16h-144zm0 0"/><path d="m280 192h64v16h-64zm0 0"/><path d="m360 192h64v16h-64zm0 0"/><path d="m296 336c13.230469 0 24-10.769531 24-24 0-3.695312-.902344-7.152344-2.40625-10.28125l24.117188-24.117188c3.136718 1.496094 6.59375 2.398438 10.289062 2.398438s7.152344-.902344 10.28125-2.40625l24.117188 24.117188c-1.496094 3.136718-2.398438 6.59375-2.398438 10.289062 0 13.230469 10.769531 24 24 24s24-10.769531 24-24-10.769531-24-24-24c-3.695312 0-7.152344.902344-10.28125 2.40625l-24.117188-24.117188c1.496094-3.136718 2.398438-6.59375 2.398438-10.289062 0-13.230469-10.769531-24-24-24s-24 10.769531-24 24c0 3.695312.902344 7.152344 2.40625 10.28125l-24.117188 24.117188c-3.136718-1.496094-6.59375-2.398438-10.289062-2.398438-13.230469 0-24 10.769531-24 24s10.769531 24 24 24zm112-32c4.414062 0 8 3.585938 8 8s-3.585938 8-8 8-8-3.585938-8-8 3.585938-8 8-8zm-56-56c4.414062 0 8 3.585938 8 8s-3.585938 8-8 8-8-3.585938-8-8 3.585938-8 8-8zm-56 56c4.414062 0 8 3.585938 8 8s-3.585938 8-8 8-8-3.585938-8-8 3.585938-8 8-8zm0 0"/></svg>